<mxfile host="app.diagrams.net" modified="2021-09-25T08:00:10.540Z" agent="5.0 (Windows NT 10.0; Win64; x64) AppleWebKit/537.36 (KHTML, like Gecko) Chrome/93.0.4577.82 Safari/537.36" etag="4IGpfUZ342FpeyqGzOfZ" version="15.3.2" type="github">
  <diagram id="C5RBs43oDa-KdzZeNtuy" name="Page-1">
    <mxGraphModel dx="780" dy="2281" grid="1" gridSize="10" guides="1" tooltips="1" connect="1" arrows="1" fold="1" page="1" pageScale="1" pageWidth="827" pageHeight="1169" math="0" shadow="0">
      <root>
        <mxCell id="WIyWlLk6GJQsqaUBKTNV-0" />
        <mxCell id="WIyWlLk6GJQsqaUBKTNV-1" parent="WIyWlLk6GJQsqaUBKTNV-0" />
        <mxCell id="pnOXPWSVjmxFKUKoBgUp-0" value="RpcRequest" style="swimlane;fontStyle=1;align=center;verticalAlign=top;childLayout=stackLayout;horizontal=1;startSize=26;horizontalStack=0;resizeParent=1;resizeParentMax=0;resizeLast=0;collapsible=1;marginBottom=0;" vertex="1" parent="WIyWlLk6GJQsqaUBKTNV-1">
          <mxGeometry x="90" y="90" width="180" height="202" as="geometry" />
        </mxCell>
        <mxCell id="pnOXPWSVjmxFKUKoBgUp-1" value="+ String: long serialVersionUID&#xa;+ String: requestId;&#xa;+ String: interfaceName;&#xa;+ String: methodName;&#xa;+ Object[]: parameters;&#xa;+ Class&lt;?&gt;[]: paramTypes;&#xa;+ String: version;&#xa;+ String: group;" style="text;strokeColor=none;fillColor=none;align=left;verticalAlign=top;spacingLeft=4;spacingRight=4;overflow=hidden;rotatable=0;points=[[0,0.5],[1,0.5]];portConstraint=eastwest;" vertex="1" parent="pnOXPWSVjmxFKUKoBgUp-0">
          <mxGeometry y="26" width="180" height="134" as="geometry" />
        </mxCell>
        <mxCell id="pnOXPWSVjmxFKUKoBgUp-19" value="+ String: getRpcServiceName()" style="text;strokeColor=none;fillColor=none;align=left;verticalAlign=top;spacingLeft=4;spacingRight=4;overflow=hidden;rotatable=0;points=[[0,0.5],[1,0.5]];portConstraint=eastwest;" vertex="1" parent="pnOXPWSVjmxFKUKoBgUp-0">
          <mxGeometry y="160" width="180" height="42" as="geometry" />
        </mxCell>
        <mxCell id="pnOXPWSVjmxFKUKoBgUp-4" value="&lt;pre style=&quot;background-color: #2b2b2b ; color: #a9b7c6 ; font-family: &amp;#34;jetbrains mono&amp;#34; ; font-size: 10.5pt&quot;&gt;&lt;br&gt;&lt;/pre&gt;" style="text;html=1;align=center;verticalAlign=middle;resizable=0;points=[];autosize=1;strokeColor=none;fillColor=none;" vertex="1" parent="WIyWlLk6GJQsqaUBKTNV-1">
          <mxGeometry x="330" y="75" width="20" height="50" as="geometry" />
        </mxCell>
        <mxCell id="pnOXPWSVjmxFKUKoBgUp-13" value="RpcResponse" style="swimlane;fontStyle=1;align=center;verticalAlign=top;childLayout=stackLayout;horizontal=1;startSize=26;horizontalStack=0;resizeParent=1;resizeParentMax=0;resizeLast=0;collapsible=1;marginBottom=0;" vertex="1" parent="WIyWlLk6GJQsqaUBKTNV-1">
          <mxGeometry x="430" y="111" width="270" height="160" as="geometry" />
        </mxCell>
        <mxCell id="pnOXPWSVjmxFKUKoBgUp-14" value="+long: serialVersionUID&#xa;+String: request&#xa;+Integer: code&#xa;+String:message&#xa;+T: data" style="text;strokeColor=none;fillColor=none;align=left;verticalAlign=top;spacingLeft=4;spacingRight=4;overflow=hidden;rotatable=0;points=[[0,0.5],[1,0.5]];portConstraint=eastwest;" vertex="1" parent="pnOXPWSVjmxFKUKoBgUp-13">
          <mxGeometry y="26" width="270" height="84" as="geometry" />
        </mxCell>
        <mxCell id="pnOXPWSVjmxFKUKoBgUp-15" value="" style="line;strokeWidth=1;fillColor=none;align=left;verticalAlign=middle;spacingTop=-1;spacingLeft=3;spacingRight=3;rotatable=0;labelPosition=right;points=[];portConstraint=eastwest;" vertex="1" parent="pnOXPWSVjmxFKUKoBgUp-13">
          <mxGeometry y="110" width="270" height="8" as="geometry" />
        </mxCell>
        <mxCell id="pnOXPWSVjmxFKUKoBgUp-16" value="+RpcResponse: sucess(T,String)&#xa;+RpcResponse: fail(RpsResponseCodeEnum)" style="text;strokeColor=none;fillColor=none;align=left;verticalAlign=top;spacingLeft=4;spacingRight=4;overflow=hidden;rotatable=0;points=[[0,0.5],[1,0.5]];portConstraint=eastwest;" vertex="1" parent="pnOXPWSVjmxFKUKoBgUp-13">
          <mxGeometry y="118" width="270" height="42" as="geometry" />
        </mxCell>
        <mxCell id="pnOXPWSVjmxFKUKoBgUp-18" value="dispatch" style="html=1;verticalAlign=bottom;endArrow=block;exitX=0.009;exitY=0.31;exitDx=0;exitDy=0;exitPerimeter=0;entryX=0.5;entryY=0;entryDx=0;entryDy=0;" edge="1" parent="pnOXPWSVjmxFKUKoBgUp-13" source="pnOXPWSVjmxFKUKoBgUp-16" target="pnOXPWSVjmxFKUKoBgUp-13">
          <mxGeometry width="80" relative="1" as="geometry">
            <mxPoint x="-100" y="154" as="sourcePoint" />
            <mxPoint x="140" y="4" as="targetPoint" />
            <Array as="points">
              <mxPoint x="-100" y="-26" />
              <mxPoint x="-20" y="-126" />
            </Array>
          </mxGeometry>
        </mxCell>
        <mxCell id="pnOXPWSVjmxFKUKoBgUp-20" value="ChannelProvider" style="swimlane;fontStyle=1;align=center;verticalAlign=top;childLayout=stackLayout;horizontal=1;startSize=26;horizontalStack=0;resizeParent=1;resizeParentMax=0;resizeLast=0;collapsible=1;marginBottom=0;" vertex="1" parent="WIyWlLk6GJQsqaUBKTNV-1">
          <mxGeometry x="325" y="400" width="160" height="86" as="geometry" />
        </mxCell>
        <mxCell id="pnOXPWSVjmxFKUKoBgUp-21" value="+ field: type" style="text;strokeColor=none;fillColor=none;align=left;verticalAlign=top;spacingLeft=4;spacingRight=4;overflow=hidden;rotatable=0;points=[[0,0.5],[1,0.5]];portConstraint=eastwest;" vertex="1" parent="pnOXPWSVjmxFKUKoBgUp-20">
          <mxGeometry y="26" width="160" height="26" as="geometry" />
        </mxCell>
        <mxCell id="pnOXPWSVjmxFKUKoBgUp-22" value="" style="line;strokeWidth=1;fillColor=none;align=left;verticalAlign=middle;spacingTop=-1;spacingLeft=3;spacingRight=3;rotatable=0;labelPosition=right;points=[];portConstraint=eastwest;" vertex="1" parent="pnOXPWSVjmxFKUKoBgUp-20">
          <mxGeometry y="52" width="160" height="8" as="geometry" />
        </mxCell>
        <mxCell id="pnOXPWSVjmxFKUKoBgUp-23" value="+ method(type): type" style="text;strokeColor=none;fillColor=none;align=left;verticalAlign=top;spacingLeft=4;spacingRight=4;overflow=hidden;rotatable=0;points=[[0,0.5],[1,0.5]];portConstraint=eastwest;" vertex="1" parent="pnOXPWSVjmxFKUKoBgUp-20">
          <mxGeometry y="60" width="160" height="26" as="geometry" />
        </mxCell>
        <mxCell id="pnOXPWSVjmxFKUKoBgUp-24" value="NettyRpcClient" style="swimlane;fontStyle=1;align=center;verticalAlign=top;childLayout=stackLayout;horizontal=1;startSize=26;horizontalStack=0;resizeParent=1;resizeParentMax=0;resizeLast=0;collapsible=1;marginBottom=0;" vertex="1" parent="WIyWlLk6GJQsqaUBKTNV-1">
          <mxGeometry x="90" y="400" width="160" height="86" as="geometry" />
        </mxCell>
        <mxCell id="pnOXPWSVjmxFKUKoBgUp-25" value="+ field: type" style="text;strokeColor=none;fillColor=none;align=left;verticalAlign=top;spacingLeft=4;spacingRight=4;overflow=hidden;rotatable=0;points=[[0,0.5],[1,0.5]];portConstraint=eastwest;" vertex="1" parent="pnOXPWSVjmxFKUKoBgUp-24">
          <mxGeometry y="26" width="160" height="26" as="geometry" />
        </mxCell>
        <mxCell id="pnOXPWSVjmxFKUKoBgUp-26" value="" style="line;strokeWidth=1;fillColor=none;align=left;verticalAlign=middle;spacingTop=-1;spacingLeft=3;spacingRight=3;rotatable=0;labelPosition=right;points=[];portConstraint=eastwest;" vertex="1" parent="pnOXPWSVjmxFKUKoBgUp-24">
          <mxGeometry y="52" width="160" height="8" as="geometry" />
        </mxCell>
        <mxCell id="pnOXPWSVjmxFKUKoBgUp-27" value="+ method(type): type" style="text;strokeColor=none;fillColor=none;align=left;verticalAlign=top;spacingLeft=4;spacingRight=4;overflow=hidden;rotatable=0;points=[[0,0.5],[1,0.5]];portConstraint=eastwest;" vertex="1" parent="pnOXPWSVjmxFKUKoBgUp-24">
          <mxGeometry y="60" width="160" height="26" as="geometry" />
        </mxCell>
        <mxCell id="pnOXPWSVjmxFKUKoBgUp-28" value="NettyRpcClientHandler" style="swimlane;fontStyle=1;align=center;verticalAlign=top;childLayout=stackLayout;horizontal=1;startSize=26;horizontalStack=0;resizeParent=1;resizeParentMax=0;resizeLast=0;collapsible=1;marginBottom=0;" vertex="1" parent="WIyWlLk6GJQsqaUBKTNV-1">
          <mxGeometry x="90" y="542" width="160" height="86" as="geometry" />
        </mxCell>
        <mxCell id="pnOXPWSVjmxFKUKoBgUp-29" value="+ field: type" style="text;strokeColor=none;fillColor=none;align=left;verticalAlign=top;spacingLeft=4;spacingRight=4;overflow=hidden;rotatable=0;points=[[0,0.5],[1,0.5]];portConstraint=eastwest;" vertex="1" parent="pnOXPWSVjmxFKUKoBgUp-28">
          <mxGeometry y="26" width="160" height="26" as="geometry" />
        </mxCell>
        <mxCell id="pnOXPWSVjmxFKUKoBgUp-30" value="" style="line;strokeWidth=1;fillColor=none;align=left;verticalAlign=middle;spacingTop=-1;spacingLeft=3;spacingRight=3;rotatable=0;labelPosition=right;points=[];portConstraint=eastwest;" vertex="1" parent="pnOXPWSVjmxFKUKoBgUp-28">
          <mxGeometry y="52" width="160" height="8" as="geometry" />
        </mxCell>
        <mxCell id="pnOXPWSVjmxFKUKoBgUp-31" value="+ method(type): type" style="text;strokeColor=none;fillColor=none;align=left;verticalAlign=top;spacingLeft=4;spacingRight=4;overflow=hidden;rotatable=0;points=[[0,0.5],[1,0.5]];portConstraint=eastwest;" vertex="1" parent="pnOXPWSVjmxFKUKoBgUp-28">
          <mxGeometry y="60" width="160" height="26" as="geometry" />
        </mxCell>
        <mxCell id="pnOXPWSVjmxFKUKoBgUp-32" value="UnprocessedRequests" style="swimlane;fontStyle=1;align=center;verticalAlign=top;childLayout=stackLayout;horizontal=1;startSize=26;horizontalStack=0;resizeParent=1;resizeParentMax=0;resizeLast=0;collapsible=1;marginBottom=0;" vertex="1" parent="WIyWlLk6GJQsqaUBKTNV-1">
          <mxGeometry x="325" y="542" width="160" height="86" as="geometry" />
        </mxCell>
        <mxCell id="pnOXPWSVjmxFKUKoBgUp-33" value="+ field: type" style="text;strokeColor=none;fillColor=none;align=left;verticalAlign=top;spacingLeft=4;spacingRight=4;overflow=hidden;rotatable=0;points=[[0,0.5],[1,0.5]];portConstraint=eastwest;" vertex="1" parent="pnOXPWSVjmxFKUKoBgUp-32">
          <mxGeometry y="26" width="160" height="26" as="geometry" />
        </mxCell>
        <mxCell id="pnOXPWSVjmxFKUKoBgUp-34" value="" style="line;strokeWidth=1;fillColor=none;align=left;verticalAlign=middle;spacingTop=-1;spacingLeft=3;spacingRight=3;rotatable=0;labelPosition=right;points=[];portConstraint=eastwest;" vertex="1" parent="pnOXPWSVjmxFKUKoBgUp-32">
          <mxGeometry y="52" width="160" height="8" as="geometry" />
        </mxCell>
        <mxCell id="pnOXPWSVjmxFKUKoBgUp-35" value="+ method(type): type" style="text;strokeColor=none;fillColor=none;align=left;verticalAlign=top;spacingLeft=4;spacingRight=4;overflow=hidden;rotatable=0;points=[[0,0.5],[1,0.5]];portConstraint=eastwest;" vertex="1" parent="pnOXPWSVjmxFKUKoBgUp-32">
          <mxGeometry y="60" width="160" height="26" as="geometry" />
        </mxCell>
        <mxCell id="pnOXPWSVjmxFKUKoBgUp-37" value="rpc的客户端" style="text;html=1;strokeColor=none;fillColor=none;align=center;verticalAlign=middle;whiteSpace=wrap;rounded=0;" vertex="1" parent="WIyWlLk6GJQsqaUBKTNV-1">
          <mxGeometry x="115" y="370" width="110" height="20" as="geometry" />
        </mxCell>
        <mxCell id="pnOXPWSVjmxFKUKoBgUp-38" value="客户端的处理器" style="text;html=1;align=center;verticalAlign=middle;resizable=0;points=[];autosize=1;strokeColor=none;fillColor=none;" vertex="1" parent="WIyWlLk6GJQsqaUBKTNV-1">
          <mxGeometry x="120" y="520" width="100" height="20" as="geometry" />
        </mxCell>
        <mxCell id="pnOXPWSVjmxFKUKoBgUp-39" value="在map中缓存，我们已经注册的channel" style="text;html=1;align=center;verticalAlign=middle;resizable=0;points=[];autosize=1;strokeColor=none;fillColor=none;" vertex="1" parent="WIyWlLk6GJQsqaUBKTNV-1">
          <mxGeometry x="300" y="360" width="220" height="20" as="geometry" />
        </mxCell>
        <mxCell id="pnOXPWSVjmxFKUKoBgUp-40" value="将还没有得到回复rpcResponse的&lt;br&gt;rpcRequest缓存到map中" style="text;html=1;align=center;verticalAlign=middle;resizable=0;points=[];autosize=1;strokeColor=none;fillColor=none;" vertex="1" parent="WIyWlLk6GJQsqaUBKTNV-1">
          <mxGeometry x="310" y="510" width="190" height="30" as="geometry" />
        </mxCell>
        <mxCell id="pnOXPWSVjmxFKUKoBgUp-41" value="" style="endArrow=none;html=1;" edge="1" parent="WIyWlLk6GJQsqaUBKTNV-1">
          <mxGeometry width="50" height="50" relative="1" as="geometry">
            <mxPoint y="330" as="sourcePoint" />
            <mxPoint x="896" y="320" as="targetPoint" />
          </mxGeometry>
        </mxCell>
        <mxCell id="pnOXPWSVjmxFKUKoBgUp-43" value="客户端第二层的类" style="rounded=0;whiteSpace=wrap;html=1;" vertex="1" parent="WIyWlLk6GJQsqaUBKTNV-1">
          <mxGeometry width="120" height="60" as="geometry" />
        </mxCell>
        <mxCell id="pnOXPWSVjmxFKUKoBgUp-44" value="客户端第一层的类" style="rounded=0;whiteSpace=wrap;html=1;" vertex="1" parent="WIyWlLk6GJQsqaUBKTNV-1">
          <mxGeometry y="330" width="120" height="60" as="geometry" />
        </mxCell>
        <mxCell id="pnOXPWSVjmxFKUKoBgUp-45" value="Classname" style="swimlane;fontStyle=1;align=center;verticalAlign=top;childLayout=stackLayout;horizontal=1;startSize=26;horizontalStack=0;resizeParent=1;resizeParentMax=0;resizeLast=0;collapsible=1;marginBottom=0;" vertex="1" parent="WIyWlLk6GJQsqaUBKTNV-1">
          <mxGeometry x="540" y="400" width="160" height="86" as="geometry" />
        </mxCell>
        <mxCell id="pnOXPWSVjmxFKUKoBgUp-46" value="+ field: type" style="text;strokeColor=none;fillColor=none;align=left;verticalAlign=top;spacingLeft=4;spacingRight=4;overflow=hidden;rotatable=0;points=[[0,0.5],[1,0.5]];portConstraint=eastwest;" vertex="1" parent="pnOXPWSVjmxFKUKoBgUp-45">
          <mxGeometry y="26" width="160" height="26" as="geometry" />
        </mxCell>
        <mxCell id="pnOXPWSVjmxFKUKoBgUp-47" value="" style="line;strokeWidth=1;fillColor=none;align=left;verticalAlign=middle;spacingTop=-1;spacingLeft=3;spacingRight=3;rotatable=0;labelPosition=right;points=[];portConstraint=eastwest;" vertex="1" parent="pnOXPWSVjmxFKUKoBgUp-45">
          <mxGeometry y="52" width="160" height="8" as="geometry" />
        </mxCell>
        <mxCell id="pnOXPWSVjmxFKUKoBgUp-48" value="+ method(type): type" style="text;strokeColor=none;fillColor=none;align=left;verticalAlign=top;spacingLeft=4;spacingRight=4;overflow=hidden;rotatable=0;points=[[0,0.5],[1,0.5]];portConstraint=eastwest;" vertex="1" parent="pnOXPWSVjmxFKUKoBgUp-45">
          <mxGeometry y="60" width="160" height="26" as="geometry" />
        </mxCell>
      </root>
    </mxGraphModel>
  </diagram>
</mxfile>
